<svg width="852" height="234" viewBox="0 0 852 234" fill="none" xmlns="http://www.w3.org/2000/svg">
<path d="M0 234V0H852V234C731.5 234 625.496 167 433 167C265.906 167 108.5 234 0 234Z" fill="white"/>
<path fill-rule="evenodd" clip-rule="evenodd" d="M823.41 89.1815C822.904 88.6379 822.206 88.3004 821.438 88.3004C820.67 88.3004 819.973 88.6379 819.467 89.1815C818.96 89.7251 818.647 90.4749 818.647 91.2995V110.81C818.647 111.634 818.96 112.384 819.467 112.928C819.973 113.471 820.67 113.809 821.438 113.809C822.206 113.809 822.904 113.471 823.41 112.928C823.916 112.384 824.23 111.634 824.23 110.81V91.2995C824.23 90.4749 823.916 89.7251 823.41 89.1815Z" fill="#50297B"/>
<path fill-rule="evenodd" clip-rule="evenodd" d="M797.295 88.9995C796.789 88.4558 796.091 88.1183 795.323 88.1183C794.556 88.1183 793.858 88.4558 793.352 88.9995C792.845 89.5431 792.531 90.2934 792.531 91.1179V110.628C792.531 111.452 792.845 112.203 793.352 112.746C793.858 113.29 794.556 113.627 795.323 113.627C796.091 113.627 796.789 113.29 797.295 112.746C797.801 112.203 798.115 111.452 798.115 110.628V91.1179C798.115 90.2934 797.801 89.5431 797.295 88.9995Z" fill="#50297B"/>
<path fill-rule="evenodd" clip-rule="evenodd" d="M833.336 95.5797C834.255 87.9828 832.544 81.536 829.125 75.8373C828.579 74.9256 827.994 74.0652 827.377 73.2552C827.613 72.1274 826.984 70.3693 825.019 68.6516C815.473 61.0365 806.25 59.9082 796.857 65.5342C795.712 66.2206 791.256 68.7441 791.122 71.2681C790.854 71.5459 790.59 71.8283 790.332 72.1212C785.26 77.866 783.117 85.7937 783.434 95.197C783.742 94.5963 784.097 94.0386 784.491 93.5324C785.146 92.6912 785.912 91.9908 786.758 91.4689C786.771 83.7489 789.361 77.8068 793.263 73.7479C794.929 73.8798 796.772 72.0049 798.264 71.1024C805.98 66.4376 813.423 67.0373 820.958 72.7173C821.895 73.3845 822.758 73.8539 823.528 74.1545C827.097 78.1749 829.532 84.0039 829.838 91.7337C830.75 92.2649 831.572 93.0007 832.27 93.8958C832.669 94.4078 833.026 94.9722 833.336 95.5797Z" fill="#50297B"/>
<path fill-rule="evenodd" clip-rule="evenodd" d="M831.579 94.5166C830.249 92.8099 828.418 91.7538 826.401 91.7538C826.128 91.7538 825.868 91.7714 825.62 91.8052C825.476 91.8254 825.332 91.8509 825.189 91.8815V110.712C825.332 110.743 825.476 110.769 825.62 110.788C825.868 110.823 826.128 110.84 826.401 110.84C828.418 110.84 830.249 109.784 831.579 108.077C832.927 106.346 833.761 103.95 833.761 101.297C833.761 98.6445 832.927 96.2472 831.579 94.5166Z" fill="#50297B"/>
<path fill-rule="evenodd" clip-rule="evenodd" d="M790.36 91.3906C788.343 91.3906 786.512 92.4462 785.182 94.153C783.834 95.8841 783 98.2809 783 100.934C783 103.586 783.834 105.983 785.182 107.714C786.512 109.421 788.343 110.477 790.36 110.477C790.633 110.477 790.894 110.46 791.141 110.425C791.286 110.405 791.429 110.38 791.572 110.349V91.5184C791.429 91.4872 791.286 91.4618 791.141 91.442C790.894 91.4078 790.633 91.3906 790.36 91.3906Z" fill="#50297B"/>
<path d="M697.264 143.441C695.834 144.902 694.944 146.916 694.944 149.13V168.014C694.944 170.227 695.834 172.241 697.264 173.702C698.694 175.164 700.667 176.071 702.834 176.071H769.407C771.576 176.071 773.547 175.164 774.978 173.702C776.409 172.241 777.298 170.227 777.298 168.014V149.13C777.298 146.916 776.409 144.902 774.978 143.441C773.547 141.981 771.576 141.074 769.407 141.074H702.834C700.667 141.074 698.694 141.981 697.264 143.441ZM748.572 124.015H725.643V137.044H748.572V124.015ZM769.407 137.044C772.665 137.044 775.623 138.403 777.768 140.593C779.911 142.782 781.242 145.804 781.242 149.13V168.014C781.242 171.339 779.911 174.361 777.768 176.55C775.623 178.74 772.665 180.099 769.407 180.099H702.834C699.578 180.099 696.619 178.74 694.474 176.55C692.331 174.361 691 171.339 691 168.014V149.13C691 145.804 692.331 142.782 694.474 140.593C696.619 138.403 699.578 137.044 702.834 137.044H723.67V123.008C723.67 122.451 724.112 122 724.656 122H749.559C750.104 122 750.545 122.451 750.545 123.008V137.044H769.407Z" fill="#88288A"/>
<path fill-rule="evenodd" clip-rule="evenodd" d="M760.543 159.2C760.543 158.143 761.383 157.287 762.418 157.287C763.452 157.287 764.291 158.143 764.291 159.2C764.291 160.258 763.452 161.114 762.418 161.114C761.383 161.114 760.543 160.258 760.543 159.2ZM752.246 159.2C752.246 164.937 756.8 169.587 762.418 169.587C768.035 169.587 772.588 164.937 772.588 159.2C772.588 153.465 768.035 148.815 762.418 148.815C756.8 148.815 752.246 153.465 752.246 159.2Z" fill="#88288A"/>
<path fill-rule="evenodd" clip-rule="evenodd" d="M707.631 159.2C707.631 158.143 708.47 157.287 709.504 157.287C710.539 157.287 711.377 158.143 711.377 159.2C711.377 160.258 710.539 161.114 709.504 161.114C708.47 161.114 707.631 160.258 707.631 159.2ZM699.333 159.2C699.333 164.937 703.887 169.587 709.504 169.587C715.121 169.587 719.675 164.937 719.675 159.2C719.675 153.465 715.121 148.815 709.504 148.815C703.887 148.815 699.333 153.465 699.333 159.2Z" fill="#88288A"/>
<path d="M741.292 159.514H730.95V157.628H741.292V159.514ZM723.423 162.223H748.819V154.921H723.423V162.223Z" fill="#88288A"/>
<path d="M746.847 148.249H744.874V146.235H746.847V148.249ZM740.929 146.235H742.903V148.249H740.929V146.235ZM736.985 146.235H738.957V148.249H736.985V146.235ZM733.04 146.235H735.013V148.249H733.04V146.235ZM729.095 146.235H731.066V148.249H729.095V146.235ZM725.149 146.235H727.122V148.249H725.149V146.235ZM721.451 148.249H723.177V146.235H721.451V148.249ZM748.819 146.235H750.792V148.249H748.819V146.235Z" fill="#88288A"/>
<path fill-rule="evenodd" clip-rule="evenodd" d="M709.573 48.3012C707.565 48.1848 705.512 49.0223 704.008 50.4028L710.322 24.8585C711.43 25.0283 727.734 27.5142 729.581 27.718C730.612 27.8316 730.847 28.3444 730.844 28.7927L730.666 29.5116L723.762 57.437H723.801C723.456 60.1673 725.316 62.3792 728.292 62.5524C731.587 62.7445 735.001 60.3672 735.918 57.2427C736.835 54.1187 734.908 51.4308 731.614 51.2386C729.584 51.1206 727.509 51.9776 726.001 53.3837L732.346 27.7169C732.346 27.7169 732.992 24.8346 733.297 23.4101C733.601 21.9851 732.043 21.7111 732.043 21.7111C732.043 21.7111 713.684 19.3545 711.838 19.08C709.993 18.806 709.955 20.5055 709.955 20.5055L709.052 24.8501L701.705 54.5703H701.753C701.447 57.2678 703.302 59.444 706.253 59.6155C709.547 59.807 712.962 57.4304 713.878 54.3058C714.795 51.1813 712.867 48.4939 709.573 48.3012Z" fill="#88288A"/>
<path fill-rule="evenodd" clip-rule="evenodd" d="M753.979 48.485C756.324 48.2205 758.471 49.0953 759.736 50.6205V17.107C759.736 16.754 759.989 16.4644 760.297 16.4644H760.366C760.674 16.4644 760.927 16.754 760.927 17.107V53.3219C760.927 53.387 760.918 53.4499 760.902 53.509C761.116 56.6029 758.473 59.4145 754.954 59.811C751.403 60.2119 748.306 58.0006 748.037 54.8727C747.768 51.7454 750.427 48.8854 753.979 48.485Z" fill="#88288A"/>
<path fill-rule="evenodd" clip-rule="evenodd" d="M744.442 8.4122C744.931 9.95526 746.524 12.6532 747.764 14.3951C748.638 15.6224 749.64 16.4761 750.51 17.6839C751.716 19.3562 752.517 21.2217 752.95 23.2625C753.116 24.0438 753.226 24.8457 753.286 25.647C753.363 26.6845 753.355 27.7364 753.237 28.7666C752.929 31.4707 751.94 33.4587 750.659 35.1387C750.331 35.4739 749.916 35.1014 750.339 34.4048C751.603 32.2881 752.143 29.7973 751.845 26.8738C751.786 26.2896 751.701 25.7712 751.559 25.206C751.271 24.0616 750.845 23.0225 750.279 22.0904C749.754 21.2256 749.412 20.9488 748.745 20.2867C747.101 18.654 745.668 16.6871 744.442 14.4012V41.3059C744.442 41.4101 744.424 41.5097 744.391 41.6005C744.429 41.8411 744.448 42.0866 744.448 42.3367C744.448 45.3994 741.558 47.8824 737.993 47.8824C734.429 47.8824 731.539 45.3994 731.539 42.3367C731.539 39.2734 734.429 36.7898 737.993 36.7898C740.056 36.7898 741.893 37.6217 743.074 38.9153V7.78295C743.074 7.3525 743.382 7 743.758 7C744.134 7 744.442 7.3525 744.442 7.78295V8.4122Z" fill="#88288A"/>
<path d="M135.99 135.228L128.694 137.725L121.705 140.116C121.525 140.523 121.246 140.855 120.91 141.088L120.909 141.086C120.573 141.318 120.178 141.453 119.768 141.46C119.604 141.462 119.438 141.445 119.273 141.404C118.682 141.265 118.2 140.876 117.897 140.364C117.595 139.849 117.471 139.211 117.6 138.57C117.729 137.927 118.086 137.4 118.556 137.071C118.911 136.824 119.33 136.686 119.768 136.693C119.911 136.695 120.057 136.713 120.202 136.747C120.391 136.793 120.574 136.867 120.748 136.965L120.749 136.963L120.769 136.974L128.694 133.256L130.995 132.177C130.268 131.878 129.499 131.607 128.694 131.365C126.043 130.569 123.003 130.101 119.768 130.063C119.626 130.061 119.485 130.061 119.343 130.061C118.542 130.061 117.751 130.087 116.975 130.138C113.201 130.388 109.765 131.226 106.996 132.476C104.704 133.511 102.867 134.828 101.672 136.329L106.996 138.227L115.809 141.369L115.828 141.355C115.989 141.242 116.165 141.149 116.352 141.086C116.558 141.014 116.768 140.978 116.975 140.975C117.341 140.967 117.699 141.063 118.017 141.242C118.513 141.521 118.913 142.01 119.096 142.639H119.099C119.28 143.263 119.212 143.911 118.955 144.452C118.697 144.994 118.249 145.432 117.674 145.631C117.442 145.711 117.206 145.746 116.975 145.741C116.639 145.734 116.311 145.641 116.017 145.476C115.661 145.277 115.356 144.975 115.143 144.592L106.996 142.725L100.175 141.161C100.564 144.033 103.134 146.578 106.996 148.323C109.765 149.572 113.2 150.411 116.975 150.661C117.751 150.712 118.542 150.739 119.343 150.739C119.485 150.739 119.626 150.737 119.768 150.735C123.003 150.698 126.042 150.23 128.694 149.434C134.582 147.666 138.563 144.284 138.563 140.4C138.563 138.515 137.626 136.749 135.99 135.228Z" fill="#0A3B55"/>
<path d="M149.339 129.742L121.085 139.408C120.918 140.215 120.185 140.725 119.442 140.548C118.697 140.371 118.224 139.567 118.387 138.756C118.55 137.943 119.286 137.428 120.032 137.606C120.283 137.665 120.502 137.795 120.677 137.972L147.703 125.296C151.677 123.432 153.253 128.423 149.339 129.742Z" fill="#0A3B55"/>
<path d="M120.815 177.532C122.551 177.461 124.291 177.302 126.036 177.056V154.58C124.322 154.903 122.571 155.097 120.815 155.165V177.532Z" fill="#0A3B55"/>
<path d="M112.652 177.193C114.387 177.41 116.127 177.534 117.872 177.565V155.16C116.112 155.087 114.362 154.887 112.652 154.56V177.193Z" fill="#0A3B55"/>
<path d="M137.142 150.157V174.361C138.277 173.974 139.413 173.553 140.551 173.098V147.355C139.514 148.394 138.369 149.326 137.142 150.157Z" fill="#0A3B55"/>
<path d="M128.979 176.561C130.715 176.221 132.454 175.797 134.199 175.292V151.877C132.549 152.702 130.796 153.371 128.979 153.888V176.561Z" fill="#0A3B55"/>
<path d="M100.244 147.671C97.8775 145.157 96.7864 142.674 96.6251 140.348L93.6998 139.678C93.8766 143.03 95.4929 146.06 98.1353 148.51V173.097C99.2706 173.603 100.407 174.064 101.545 174.482V151.015C102.463 151.554 103.444 152.049 104.489 152.487V175.464C106.224 175.986 107.964 176.409 109.708 176.735V154.1C110.547 154.278 111.4 154.435 112.276 154.549C109.093 153.711 103.63 151.268 100.244 147.671Z" fill="#0A3B55"/>
<path d="M109.099 127.274C116.089 125.598 124.862 126.721 131.338 128.188C123.229 123.33 109.236 122.189 100.888 127.5C98.1778 129.224 96.096 131.412 94.8822 133.909L97.9225 134.993C100.085 131.208 104.599 128.353 109.099 127.274Z" fill="#0A3B55"/>
<path d="M88.4845 137.587L115.699 143.824C115.934 144.61 116.706 145.044 117.431 144.793C118.159 144.541 118.562 143.694 118.33 142.902C118.099 142.109 117.322 141.67 116.594 141.922C116.35 142.007 116.143 142.159 115.982 142.353L89.7369 132.996C85.6255 131.528 84.476 136.668 88.4845 137.587Z" fill="#0A3B55"/>
<path d="M98.1354 179.346C105.317 181.89 112.46 183.26 119.544 183.316C126.627 183.37 133.638 182.109 140.551 179.394V175.989C133.638 178.855 126.631 180.182 119.556 180.128C112.493 180.074 105.345 178.64 98.1354 175.986V179.346Z" fill="#0A3B55"/>
<path d="M17.291 126.454C15.8386 120.405 17.8052 113.42 27.3154 110.22C21.3481 95.4847 36.0764 76.2148 54.2368 58.5608C31.4609 76.6513 19.5621 91.0427 24.955 108.871C13.1191 112.077 11.8567 124.747 16.5192 132.894C24.1776 146.274 47.3755 141.603 48.7291 126.527C45.2153 138.34 21.5154 144.053 17.291 126.454Z" fill="#006296"/>
<path d="M34.1256 90.1978C34.1256 90.1978 41.9871 92.136 44.0805 97.5732C45.4323 101.088 43.5043 103.506 41.6816 105.381C40.4464 106.653 38.1772 108.495 38.7412 110.59C39.5449 113.579 42.992 116.199 43.9198 120.792C44.3832 123.082 44.1125 125.321 43.257 127.268C39.9096 134.894 27.7974 135.783 24.3156 134.241C29.5693 136.888 38.571 136.163 43.8145 130.791C46.8724 127.658 48.5813 123.276 46.9109 118.829C46.2097 116.961 45.1963 115.325 44.386 114.148C42.0219 110.72 39.5778 110.411 43.6143 106.251C44.9773 104.847 46.5932 103.494 47.4721 101.439C49.3099 97.1337 46.5274 92.8358 38.0343 89.6052C43.5268 77.3012 50.9549 66.7332 59.8081 56C50.4398 64.6628 41.5829 75.0556 34.1256 90.1978Z" fill="#006296"/>
<path d="M30.5496 116.972C30.6107 116.972 30.6728 116.973 30.7348 116.977C32.7671 117.087 34.3304 118.931 34.2289 121.094C34.1283 123.191 32.5002 124.82 30.5496 124.817C30.4876 124.817 30.4246 124.815 30.3626 124.813C28.3302 124.703 26.7679 122.861 26.8694 120.698C26.97 118.599 28.5981 116.971 30.5496 116.972ZM36.1052 93.1714C35.952 93.2054 35.8119 93.3055 35.7198 93.4547C34.6886 95.1567 33.7053 96.8736 32.7982 98.6166C31.9832 100.181 31.2274 101.77 30.5496 103.393C30.4716 103.581 30.3936 103.769 30.3174 103.957C29.5786 105.783 28.9431 107.649 28.4336 109.57C27.9223 111.494 27.5397 113.473 27.3094 115.517V115.526L27.3084 115.53C27.0339 115.72 26.7754 115.93 26.5348 116.162L26.5338 116.163C25.3964 117.257 24.651 118.814 24.5664 120.573C24.4837 122.333 25.0759 123.961 26.1043 125.172C27.1317 126.383 28.5944 127.177 30.2469 127.266C30.3485 127.273 30.45 127.275 30.5496 127.275C32.0828 127.276 33.4966 126.656 34.5645 125.628C35.7038 124.533 36.4473 122.975 36.5301 121.218C36.6147 119.458 36.0206 117.828 34.9931 116.617C34.7111 116.285 34.3953 115.983 34.0522 115.72C34.0634 115.692 34.0738 115.662 34.0804 115.632C34.4705 114.068 34.9461 112.547 35.5017 111.068C36.0544 109.591 36.6899 108.149 37.3986 106.746C38.1065 105.341 38.8886 103.972 39.7365 102.634C40.5882 101.294 41.5028 99.9911 42.4748 98.7207C42.9852 98.0519 42.033 97.228 41.5235 97.8948C40.5214 99.2022 39.5842 100.538 38.7175 101.903C37.848 103.272 37.0443 104.679 36.3157 106.126C35.5891 107.569 34.9339 109.055 34.3596 110.585C33.8153 112.036 33.3443 113.525 32.9542 115.051C32.7436 114.954 32.5293 114.867 32.3084 114.796C32.6553 113.224 33.0999 111.705 33.6339 110.228C34.1744 108.728 34.8108 107.262 35.5336 105.816C36.2575 104.366 37.0734 102.932 37.9721 101.497C38.8717 100.064 39.8568 98.6286 40.92 97.1789C41.0243 97.0358 41.0647 96.8636 41.0469 96.6974C41.029 96.5452 40.9613 96.3981 40.8457 96.2889L40.841 96.2819L40.8138 96.2599L40.8128 96.2589C40.6793 96.1488 40.5177 96.1057 40.3635 96.1248L40.3607 96.1258C40.2046 96.1458 40.0561 96.2309 39.9527 96.371L39.9518 96.372C38.8726 97.8457 37.8687 99.3074 36.9503 100.774C36.0262 102.247 35.1896 103.72 34.4479 105.202L34.4489 105.205C33.7025 106.697 33.0463 108.211 32.487 109.762C31.9249 111.32 31.4615 112.908 31.1014 114.542V114.543C31.0187 114.536 30.9369 114.528 30.8523 114.524C30.7499 114.519 30.6493 114.517 30.5496 114.517H30.5083L30.5496 114.281C30.7922 112.915 31.1174 111.556 31.5197 110.211C32.0067 108.588 32.6064 106.975 33.3142 105.374C34.0211 103.774 34.839 102.183 35.7574 100.602C36.6776 99.018 37.6976 97.4473 38.8068 95.8945C38.9093 95.7493 38.9469 95.5741 38.9262 95.4079C38.9036 95.2437 38.8228 95.0876 38.6865 94.9784L38.6846 94.9774C38.5502 94.8683 38.3866 94.8283 38.2325 94.8503C38.0773 94.8733 37.9307 94.9584 37.8282 95.1026L37.8254 95.1046C36.687 96.6994 35.6446 98.3052 34.7083 99.9171C33.7692 101.534 32.9317 103.168 32.2022 104.819C31.5667 106.253 31.014 107.704 30.5496 109.166C30.4801 109.383 30.4143 109.6 30.3485 109.818C29.8691 111.421 29.4949 113.04 29.2345 114.67C29.0306 114.719 28.8294 114.779 28.6329 114.849C28.8585 113.162 29.1941 111.52 29.619 109.918C29.8926 108.887 30.2046 107.871 30.5496 106.868C30.8279 106.062 31.1268 105.264 31.4483 104.473C32.1646 102.696 32.9843 100.956 33.8764 99.2453C34.7722 97.5263 35.7395 95.8374 36.7538 94.1635L36.7547 94.1605C36.844 94.0104 36.8713 93.8321 36.8365 93.669C36.8036 93.5068 36.7115 93.3566 36.5686 93.2585C36.4267 93.1614 36.2584 93.1344 36.1052 93.1714Z" fill="#006296"/>
<path d="M158.685 69.7442C158.685 70.0297 158.575 70.2882 158.401 70.4745C158.226 70.6596 157.987 70.7751 157.723 70.7751H154.89H152.058C151.794 70.7751 151.555 70.6596 151.379 70.4745C151.206 70.2888 151.096 70.0297 151.096 69.7442V52.0974C151.775 52.0174 152.307 51.4124 152.307 50.6827V17.8182C152.307 17.4212 152.15 17.061 151.896 16.8025C151.948 16.7926 152.003 16.788 152.058 16.788H154.89H157.358C157.096 17.0479 156.933 17.4133 156.933 17.8182V50.6827C156.933 51.4662 157.547 52.1073 158.3 52.1073H158.685V69.7442ZM149.941 69.7442C149.941 70.0297 149.832 70.2888 149.657 70.4745C149.482 70.6596 149.242 70.7751 148.979 70.7751H146.146H143.313C143.05 70.7751 142.81 70.6596 142.636 70.4745C142.461 70.2882 142.352 70.0297 142.352 69.7442V17.8182C142.352 17.5328 142.461 17.2742 142.636 17.0872C142.81 16.9035 143.05 16.788 143.313 16.788H146.146H147.897C147.635 17.0479 147.471 17.4133 147.471 17.8182V50.6827C147.471 51.4662 148.086 52.1073 148.838 52.1073H149.941V69.7442ZM141.197 69.7442C141.197 70.0297 141.086 70.2888 140.912 70.4745C140.739 70.6596 140.497 70.7751 140.234 70.7751H137.401H134.568C134.305 70.7751 134.065 70.6596 133.891 70.4745C133.717 70.2888 133.607 70.0297 133.607 69.7442V17.8182C133.607 17.5328 133.717 17.2742 133.891 17.0872C134.065 16.9035 134.305 16.788 134.568 16.788H137.353C137.091 17.0479 136.926 17.4133 136.926 17.8182V50.6827C136.926 51.1119 137.111 51.4983 137.401 51.7595C137.641 51.976 137.953 52.1073 138.293 52.1073H140.397C140.695 52.1073 140.972 52.0062 141.197 51.8356V69.7442ZM132.452 69.7442C132.452 70.0297 132.343 70.2888 132.167 70.4745C131.994 70.6596 131.753 70.7751 131.491 70.7751H128.657H125.823C125.562 70.7751 125.321 70.6596 125.148 70.4745C124.971 70.2888 124.863 70.0297 124.863 69.7442V51.9412C125.053 52.0469 125.27 52.1073 125.5 52.1073H127.603C128.026 52.1073 128.405 51.9038 128.657 51.5863C128.851 51.3402 128.97 51.0259 128.97 50.6827V17.8182C128.97 17.4757 128.851 17.1607 128.657 16.9147C128.622 16.8694 128.584 16.8274 128.543 16.788H128.657H131.491C131.753 16.788 131.994 16.9035 132.167 17.0872C132.343 17.2742 132.452 17.5328 132.452 17.8182V69.7442ZM123.708 69.7442C123.708 70.0297 123.598 70.2888 123.424 70.4745C123.249 70.6596 123.009 70.7751 122.746 70.7751H119.913H117.079C116.817 70.7751 116.576 70.6596 116.403 70.4745C116.228 70.2888 116.119 70.0297 116.119 69.7442V52.1073H117.196C117.949 52.1073 118.562 51.4662 118.562 50.6827V17.8182C118.562 17.4133 118.398 17.0479 118.137 16.788H119.913H122.746C123.009 16.788 123.249 16.9035 123.423 17.0872C123.598 17.2742 123.708 17.5328 123.708 17.8182V69.7442ZM114.962 69.7442C114.962 70.0297 114.855 70.2888 114.679 70.4745C114.506 70.6596 114.265 70.7751 114.001 70.7751H111.168H108.336C108.073 70.7751 107.832 70.6596 107.659 70.4745C107.484 70.2888 107.375 70.0297 107.375 69.7442V17.8182C107.375 17.5328 107.484 17.2742 107.659 17.0872C107.832 16.9035 108.073 16.788 108.336 16.788H111.168H114.001C114.049 16.788 114.096 16.7913 114.142 16.7985C113.885 17.059 113.726 17.4192 113.726 17.8182V50.6827C113.726 51.4203 114.273 52.0318 114.962 52.1V69.7442ZM106.219 69.7442C106.219 70.0297 106.109 70.2888 105.935 70.4745C105.761 70.6596 105.52 70.7751 105.257 70.7751H102.424H99.5908C99.3282 70.7751 99.0883 70.6596 98.9146 70.4745C98.7395 70.2888 98.6312 70.0297 98.6312 69.7442V52.0462C98.7559 52.0843 98.8875 52.1073 99.0241 52.1073H101.128C101.731 52.1073 102.244 51.6958 102.424 51.1296C102.47 50.9885 102.494 50.8395 102.494 50.6827V17.8182C102.494 17.6627 102.47 17.5118 102.424 17.372C102.353 17.1476 102.229 16.9481 102.068 16.788H102.424H105.257C105.52 16.788 105.761 16.9035 105.935 17.0872C106.109 17.2742 106.219 17.5328 106.219 17.8182V69.7442ZM97.4739 69.7442C97.4739 70.0297 97.3662 70.2888 97.1905 70.4745C97.0167 70.6596 96.7775 70.7751 96.513 70.7751H93.6795H90.8485C90.5853 70.7751 90.3448 70.6596 90.1704 70.4745C89.9947 70.2888 89.8852 70.0297 89.8852 69.7442V52.104L89.9802 52.1073H92.0833C92.8345 52.1073 93.4497 51.4662 93.4497 50.6827V17.8182C93.4497 17.4133 93.286 17.0479 93.024 16.788H93.6795H96.513C96.7775 16.788 97.0167 16.9035 97.1905 17.0872C97.3662 17.2742 97.4739 17.5328 97.4739 17.8182V69.7442ZM88.7304 69.7442C88.7304 70.0297 88.6214 70.2888 88.4451 70.4745C88.2732 70.6596 88.0327 70.7751 87.7689 70.7751H84.9366H82.1038C81.8406 70.7751 81.5988 70.6596 81.4256 70.4745C81.2512 70.2888 81.1423 70.0297 81.1423 69.7442V52.1073H83.0306C83.7825 52.1073 84.3964 51.4662 84.3964 50.6827V17.8182C84.3964 17.4133 84.232 17.0479 83.9714 16.788H84.9366H87.7689C88.0327 16.788 88.272 16.9035 88.4451 17.0872C88.5389 17.1876 88.6145 17.3077 88.663 17.4416C88.6302 17.5603 88.6145 17.6883 88.6145 17.8182V50.6827C88.6145 50.8874 88.6554 51.0817 88.7304 51.2569V69.7442ZM157.723 16H154.89H152.058C151.657 16 151.285 16.1483 150.992 16.3943H150.941H150.043C149.751 16.1483 149.38 16 148.979 16H146.146H143.313C142.84 16 142.409 16.2073 142.098 16.5367C141.967 16.6765 141.858 16.8385 141.775 17.0157C141.691 16.8385 141.58 16.6765 141.45 16.5367C141.138 16.2073 140.707 16 140.234 16H137.401H134.568C134.096 16 133.666 16.2073 133.354 16.5367C133.223 16.6765 133.113 16.8385 133.03 17.0157C132.947 16.8385 132.836 16.6765 132.705 16.5367C132.395 16.2073 131.963 16 131.491 16H128.657H125.823C125.352 16 124.922 16.206 124.611 16.5367C124.48 16.6765 124.369 16.8372 124.284 17.0157C124.202 16.8372 124.092 16.6765 123.961 16.5367C123.65 16.2073 123.218 16 122.746 16H119.913H117.079C116.681 16 116.309 16.1483 116.018 16.3943H115.093H115.067C114.773 16.1483 114.402 16 114.001 16H111.168H108.336C107.864 16 107.433 16.206 107.121 16.5367C106.991 16.6765 106.88 16.8385 106.797 17.0157C106.713 16.8385 106.603 16.6765 106.472 16.5367C106.161 16.2073 105.73 16 105.257 16H102.424H99.5908C99.1186 16 98.6872 16.206 98.3775 16.5367L98.3233 16.5977C98.1967 16.6765 98.0847 16.7762 97.9889 16.893C97.9146 16.7631 97.8278 16.6437 97.7283 16.5367C97.4166 16.2073 96.9878 16 96.513 16H93.6795H90.8485C90.4374 16 90.0583 16.1555 89.763 16.4127C89.525 16.4521 89.3059 16.557 89.1252 16.7086C89.0823 16.6483 89.0345 16.5905 88.9835 16.5367C88.6718 16.2073 88.2411 16 87.7689 16H84.9366H82.1038C81.702 16 81.3318 16.1483 81.0403 16.3943H80.9276C80.1745 16.3943 79.5605 17.0347 79.5605 17.8182V50.6827C79.5605 51.2667 79.9018 51.7706 80.3848 51.9905V69.7442C80.3848 70.2423 80.5787 70.6957 80.8891 71.0257C81.1989 71.3564 81.6303 71.5631 82.1038 71.5631H84.9366H87.7689C88.2411 71.5631 88.6731 71.3564 88.9835 71.0257C89.1145 70.8873 89.2246 70.7258 89.3084 70.5467C89.3921 70.7258 89.5017 70.8873 89.6327 71.0257C89.9444 71.3564 90.375 71.5631 90.8485 71.5631H93.6795H96.513C96.9878 71.5631 97.4166 71.3564 97.7283 71.0257C97.8592 70.8873 97.9701 70.7258 98.0525 70.5467C98.1369 70.7258 98.2471 70.8873 98.3775 71.0257C98.6872 71.3564 99.1186 71.5631 99.5908 71.5631H102.424H105.257C105.73 71.5631 106.161 71.3564 106.472 71.0257C106.603 70.8873 106.713 70.7258 106.797 70.5467C106.88 70.7258 106.991 70.8873 107.121 71.0257C107.433 71.3564 107.864 71.5631 108.336 71.5631H111.168H114.001C114.475 71.5631 114.906 71.3564 115.216 71.0257C115.348 70.8873 115.458 70.7258 115.541 70.5467C115.624 70.7258 115.736 70.8873 115.866 71.0257C116.176 71.3564 116.607 71.5631 117.079 71.5631H119.913H122.746C123.218 71.5631 123.65 71.3564 123.961 71.0257C124.092 70.8873 124.202 70.7258 124.284 70.5474C124.369 70.7258 124.48 70.8873 124.609 71.0257C124.922 71.3564 125.352 71.5631 125.823 71.5631H128.657H131.491C131.963 71.5631 132.395 71.3564 132.705 71.0257C132.836 70.8873 132.947 70.7258 133.03 70.5467C133.113 70.7258 133.223 70.8873 133.354 71.0257C133.666 71.3564 134.096 71.5631 134.568 71.5631H137.401H140.234C140.707 71.5631 141.138 71.3564 141.45 71.0257C141.581 70.8873 141.691 70.7245 141.775 70.5467C141.858 70.7232 141.967 70.8846 142.098 71.0237V71.0257C142.409 71.3564 142.84 71.5631 143.313 71.5631H146.146H148.979C149.453 71.5631 149.883 71.3564 150.194 71.0257C150.325 70.8873 150.434 70.7258 150.519 70.5474C150.602 70.7258 150.711 70.8873 150.842 71.0257C151.153 71.3564 151.585 71.5631 152.058 71.5631H154.89H157.723C158.197 71.5631 158.627 71.3564 158.938 71.0257L158.939 71.0237C159.056 70.8997 159.148 70.7534 159.228 70.5979V16.3943H158.787C158.493 16.1483 158.124 16 157.723 16Z" fill="#0A3B55"/>
</svg>
